<svg width="637" height="572" viewBox="0 0 637 572" fill="none" xmlns="http://www.w3.org/2000/svg">
<g id="Illustration">
<g id="Shape">
<g id="Oval" opacity="0.1" filter="url(#filter0_f)">
<ellipse cx="121.531" cy="275.607" rx="115.531" ry="116.393" fill="#7367F0"/>
</g>
<path id="Oval_2" opacity="0.05" fill-rule="evenodd" clip-rule="evenodd" d="M380.75 177.185C380.75 116.434 429.999 67.1853 490.75 67.1853C551.501 67.1853 600.75 116.434 600.75 177.185C600.75 237.937 551.501 287.185 490.75 287.185C429.999 287.185 380.75 237.937 380.75 177.185ZM553.75 176.685C553.75 142.168 525.768 114.185 491.25 114.185C456.732 114.185 428.75 142.168 428.75 176.685C428.75 211.203 456.732 239.185 491.25 239.185C525.768 239.185 553.75 211.203 553.75 176.685Z" fill="#00CFE8"/>
<ellipse id="Oval_3" opacity="0.1" cx="312.382" cy="53.0407" rx="37.9439" ry="38.0407" stroke="#7367F0" stroke-width="30"/>
<path id="Path" opacity="0.1" d="M491.165 67.1853C551.687 67.1853 600.75 116.434 600.75 177.185C600.75 237.937 551.687 287.185 491.165 287.185C454.704 287.185 421.237 269.153 400.923 239.605C393.53 228.852 396.221 214.12 406.933 206.699C417.538 199.353 432.029 201.927 439.491 212.413L439.715 212.733C451.321 229.614 470.362 239.873 491.165 239.873C525.656 239.873 553.617 211.807 553.617 177.185C553.617 142.91 526.213 115.059 492.198 114.506L491.165 114.497C478.15 114.497 467.598 103.906 467.598 90.8412C467.598 77.7764 478.15 67.1853 491.165 67.1853Z" fill="#00CFE8"/>
</g>
<g id="Mobile Banking App">
<g id="Phone3">
<path id="Rectangle" fill-rule="evenodd" clip-rule="evenodd" d="M168.975 178.137C168.975 164.254 180.229 153 194.112 153H345.201C359.084 153 370.338 164.254 370.338 178.137V545.323C370.338 559.206 359.084 570.46 345.201 570.46H194.112C180.229 570.46 168.975 559.206 168.975 545.323V178.137Z" fill="#8EE9F4"/>
<g id="Group 48">
<path id="Rectangle_2" fill-rule="evenodd" clip-rule="evenodd" d="M176.237 179.934C176.237 169.705 184.53 161.412 194.759 161.412H221.439C222.187 161.412 222.799 162.007 222.821 162.755C222.976 168.115 227.365 172.379 232.727 172.379H305.926C311.288 172.379 315.678 168.115 315.833 162.755C315.854 162.007 316.467 161.412 317.215 161.412H343.894C354.124 161.412 362.416 169.705 362.416 179.934V541.033C362.416 551.263 354.124 559.555 343.894 559.555H194.759C184.53 559.555 176.237 551.263 176.237 541.033V179.934Z" fill="white"/>
<mask id="mask0" mask-type="alpha" maskUnits="userSpaceOnUse" x="176" y="161" width="187" height="399">
<path id="Rectangle_3" fill-rule="evenodd" clip-rule="evenodd" d="M176.237 179.934C176.237 169.705 184.53 161.412 194.759 161.412H221.439C222.187 161.412 222.799 162.007 222.821 162.755C222.976 168.115 227.365 172.379 232.727 172.379H305.926C311.288 172.379 315.678 168.115 315.833 162.755C315.854 162.007 316.467 161.412 317.215 161.412H343.894C354.124 161.412 362.416 169.705 362.416 179.934V541.033C362.416 551.263 354.124 559.555 343.894 559.555H194.759C184.53 559.555 176.237 551.263 176.237 541.033V179.934Z" fill="white"/>
</mask>
<g mask="url(#mask0)">
<ellipse id="Oval_4" cx="246.822" cy="403.737" rx="15.9688" ry="15.9515" fill="#E97EFF" fill-opacity="0.548951"/>
<path id="Rectangle_4" fill-rule="evenodd" clip-rule="evenodd" d="M198.916 235.001C198.916 232.11 201.259 229.767 204.15 229.767H335.904C338.794 229.767 341.138 232.11 341.138 235.001C341.138 237.891 338.794 240.235 335.904 240.235H204.15C201.259 240.235 198.916 237.891 198.916 235.001Z" fill="#E97EFF" fill-opacity="0.548951"/>
</g>
</g>
<path id="Path_2" d="M280.572 160.308C282.294 160.308 283.69 161.647 283.69 163.299C283.69 164.914 282.355 166.23 280.686 166.288L280.572 166.29H245.304C243.582 166.29 242.186 164.951 242.186 163.299C242.186 161.684 243.521 160.368 245.19 160.31L245.304 160.308H280.572Z" fill="#00CFE8"/>
<path id="Path_3" d="M293.21 159.81C294.933 159.81 296.329 161.205 296.329 162.925C296.329 164.608 294.994 165.979 293.325 166.039L293.21 166.041H293.047C291.324 166.041 289.928 164.646 289.928 162.925C289.928 161.243 291.263 159.872 292.932 159.812L293.047 159.81H293.21Z" fill="#00CFE8"/>
</g>
<g id="BoardPieChart">
<g id="Rectangle_5" filter="url(#filter1_dd)">
<path fill-rule="evenodd" clip-rule="evenodd" d="M188.229 359.27C188.229 354.434 192.15 350.513 196.986 350.513H388.175C393.011 350.513 396.931 354.434 396.931 359.27V478.524C396.931 483.361 393.011 487.281 388.175 487.281H196.986C192.15 487.281 188.229 483.361 188.229 478.524V359.27Z" fill="white"/>
</g>
<mask id="mask1" mask-type="alpha" maskUnits="userSpaceOnUse" x="188" y="350" width="209" height="138">
<path id="Rectangle_6" fill-rule="evenodd" clip-rule="evenodd" d="M188.229 359.27C188.229 354.434 192.15 350.513 196.986 350.513H388.175C393.011 350.513 396.931 354.434 396.931 359.27V478.524C396.931 483.361 393.011 487.281 388.175 487.281H196.986C192.15 487.281 188.229 483.361 188.229 478.524V359.27Z" fill="white"/>
</mask>
<g mask="url(#mask1)">
<path id="Rectangle_7" fill-rule="evenodd" clip-rule="evenodd" d="M183.547 345.15H402.282V385.376H183.547L183.547 345.15Z" fill="#A8EDF6"/>
<path id="Rectangle_8" opacity="0.365606" fill-rule="evenodd" clip-rule="evenodd" d="M205.621 374.649C205.621 373.538 206.522 372.638 207.632 372.638H274.515C275.626 372.638 276.526 373.538 276.526 374.649C276.526 375.76 275.626 376.66 274.515 376.66H207.632C206.522 376.66 205.621 375.76 205.621 374.649Z" fill="#6FA3FF"/>
<rect id="Rectangle_9" x="205.621" y="361.24" width="37.4593" height="4.02258" rx="2.01129" fill="white"/>
<rect id="Rectangle_10" x="212.311" y="452.419" width="37.4593" height="4.69301" rx="2.3465" fill="#EA5455"/>
<path id="Rectangle_11" fill-rule="evenodd" clip-rule="evenodd" d="M212.311 468.174C212.311 466.878 213.361 465.827 214.657 465.827H234.045C235.341 465.827 236.392 466.878 236.392 468.174C236.392 469.47 235.341 470.52 234.045 470.52H214.657C213.361 470.52 212.311 469.47 212.311 468.174Z" fill="#F8F9FA"/>
<rect id="Rectangle_12" x="271.844" y="452.419" width="37.4593" height="4.69301" rx="2.3465" fill="#FF9F43"/>
<path id="Rectangle_13" fill-rule="evenodd" clip-rule="evenodd" d="M271.844 468.174C271.844 466.878 272.894 465.827 274.19 465.827H293.578C294.874 465.827 295.925 466.878 295.925 468.174C295.925 469.47 294.874 470.52 293.578 470.52H274.19C272.894 470.52 271.844 469.47 271.844 468.174Z" fill="#F8F9FA"/>
<rect id="Rectangle_14" x="333.385" y="452.419" width="37.4593" height="4.69301" rx="2.3465" fill="#28C76F"/>
<path id="Rectangle_15" fill-rule="evenodd" clip-rule="evenodd" d="M333.385 468.174C333.385 466.878 334.435 465.827 335.731 465.827H355.119C356.415 465.827 357.466 466.878 357.466 468.174C357.466 469.47 356.415 470.52 355.119 470.52H335.731C334.435 470.52 333.385 469.47 333.385 468.174Z" fill="#F8F9FA"/>
<g id="Group 3">
<path id="Oval_5" fill-rule="evenodd" clip-rule="evenodd" d="M352.114 438.843C362.735 438.843 371.345 430.213 371.345 419.568C371.345 408.923 362.735 400.293 352.114 400.293C341.493 400.293 332.883 408.923 332.883 419.568C332.883 430.213 341.493 438.843 352.114 438.843ZM352.114 431.133C345.741 431.133 340.575 425.955 340.575 419.568C340.575 413.181 345.741 408.003 352.114 408.003C358.487 408.003 363.653 413.181 363.653 419.568C363.653 425.955 358.487 431.133 352.114 431.133Z" fill="#F2F2F2"/>
<path id="Path_4" fill-rule="evenodd" clip-rule="evenodd" d="M371.345 419.568C371.345 408.923 362.735 400.293 352.114 400.293C349.99 400.293 348.268 402.019 348.268 404.148C348.268 406.277 349.99 408.003 352.114 408.003C358.414 408.003 363.535 413.064 363.651 419.351L363.653 419.568C363.653 421.697 365.375 423.423 367.499 423.423C369.623 423.423 371.345 421.697 371.345 419.568Z" fill="#28C76F"/>
</g>
<g id="Group 4">
<path id="Oval_6" fill-rule="evenodd" clip-rule="evenodd" d="M291.911 438.843C302.532 438.843 311.142 430.213 311.142 419.568C311.142 408.923 302.532 400.293 291.911 400.293C281.29 400.293 272.68 408.923 272.68 419.568C272.68 430.213 281.29 438.843 291.911 438.843ZM291.911 431.133C285.538 431.133 280.372 425.955 280.372 419.568C280.372 413.181 285.538 408.003 291.911 408.003C298.284 408.003 303.45 413.181 303.45 419.568C303.45 425.955 298.284 431.133 291.911 431.133Z" fill="#F2F2F2"/>
<path id="Path_5" d="M291.911 438.843C302.532 438.843 311.142 430.213 311.142 419.568C311.142 408.923 302.532 400.293 291.911 400.293C289.786 400.293 288.064 402.019 288.064 404.148C288.064 406.277 289.786 408.003 291.911 408.003C298.283 408.003 303.45 413.181 303.45 419.568C303.45 425.882 298.4 431.015 292.127 431.131L291.911 431.133C289.786 431.133 288.064 432.859 288.064 434.988C288.064 437.117 289.786 438.843 291.911 438.843Z" fill="#FF9F43"/>
</g>
<g id="Group 6">
<path id="Oval_7" fill-rule="evenodd" clip-rule="evenodd" d="M231.709 438.843C242.33 438.843 250.94 430.213 250.94 419.568C250.94 408.923 242.33 400.293 231.709 400.293C221.088 400.293 212.478 408.923 212.478 419.568C212.478 430.213 221.088 438.843 231.709 438.843ZM231.709 431.133C225.336 431.133 220.17 425.955 220.17 419.568C220.17 413.181 225.336 408.003 231.709 408.003C238.082 408.003 243.248 413.181 243.248 419.568C243.248 425.955 238.082 431.133 231.709 431.133Z" fill="#F2F2F2"/>
<path id="Path_6" fill-rule="evenodd" clip-rule="evenodd" d="M212.478 419.568C212.478 430.213 221.088 438.843 231.709 438.843C242.33 438.843 250.94 430.213 250.94 419.568C250.94 408.923 242.33 400.293 231.709 400.293C229.585 400.293 227.863 402.019 227.863 404.148C227.863 406.277 229.585 408.003 231.709 408.003C238.082 408.003 243.248 413.181 243.248 419.568C243.248 425.955 238.082 431.133 231.709 431.133C225.336 431.133 220.17 425.955 220.17 419.568C220.17 417.439 218.448 415.713 216.324 415.713C214.2 415.713 212.478 417.439 212.478 419.568Z" fill="#EA5455"/>
</g>
</g>
</g>
<g id="VisaCard2">
<g id="Rectangle_16" filter="url(#filter2_d)">
<path fill-rule="evenodd" clip-rule="evenodd" d="M190.441 206.351H397.491C399.964 206.351 401.968 208.361 401.968 210.841V328.683C401.968 331.163 399.964 333.172 397.491 333.172H190.441C187.968 333.172 185.964 331.163 185.964 328.683V210.841C185.964 208.361 187.968 206.351 190.441 206.351Z" fill="#BFB9FF"/>
</g>
<g id="Group 46">
<g id="Group 45">
<g id="Group 43">
<ellipse id="Oval_8" cx="343.993" cy="239.357" rx="12.9826" ry="12.9349" fill="#8E83FF"/>
<ellipse id="Oval Copy 10" cx="361.901" cy="239.357" rx="12.9826" ry="12.9349" fill="#FFBB7A"/>
<path id="Path_7" fill-rule="evenodd" clip-rule="evenodd" d="M352.83 230.104L352.949 229.992C355.43 232.348 356.976 235.673 356.976 239.357C356.976 243.042 355.43 246.367 352.949 248.723C350.465 246.368 348.918 243.042 348.918 239.357C348.918 235.731 350.416 232.452 352.83 230.104L352.949 229.992L352.83 230.104Z" fill="white" fill-opacity="0.416193"/>
</g>
<path id="Rectangle_17" fill-rule="evenodd" clip-rule="evenodd" d="M217.972 247.609H245.057C246.046 247.609 246.848 248.408 246.848 249.393V269.019C246.848 270.004 246.046 270.803 245.057 270.803H217.972C216.983 270.803 216.182 270.004 216.182 269.019V249.393C216.182 248.408 216.983 247.609 217.972 247.609Z" fill="#9F95FF"/>
</g>
<g id="Group 44">
<path id="Rectangle_18" fill-rule="evenodd" clip-rule="evenodd" d="M220.211 283.96H242.595C244.82 283.96 246.624 285.758 246.624 287.975C246.624 290.192 244.82 291.989 242.595 291.989H220.211C217.986 291.989 216.182 290.192 216.182 287.975C216.182 285.758 217.986 283.96 220.211 283.96Z" fill="white" fill-opacity="0.646908"/>
<path id="Rectangle_19" fill-rule="evenodd" clip-rule="evenodd" d="M220.211 304.032H276.17C278.396 304.032 280.199 305.829 280.199 308.046C280.199 310.263 278.396 312.06 276.17 312.06H220.211C217.986 312.06 216.182 310.263 216.182 308.046C216.182 305.829 217.986 304.032 220.211 304.032Z" fill="white" fill-opacity="0.646908"/>
<path id="Rectangle_20" fill-rule="evenodd" clip-rule="evenodd" d="M347.799 304.032H370.182C372.408 304.032 374.212 305.829 374.212 308.046C374.212 310.263 372.408 312.06 370.182 312.06H347.799C345.573 312.06 343.77 310.263 343.77 308.046C343.77 305.829 345.573 304.032 347.799 304.032Z" fill="white" fill-opacity="0.646908"/>
<path id="Rectangle_21" fill-rule="evenodd" clip-rule="evenodd" d="M220.211 225.977H242.595C244.82 225.977 246.624 227.774 246.624 229.991C246.624 232.208 244.82 234.005 242.595 234.005H220.211C217.986 234.005 216.182 232.208 216.182 229.991C216.182 227.774 217.986 225.977 220.211 225.977Z" fill="white" fill-opacity="0.646908"/>
<path id="Rectangle Copy 38" fill-rule="evenodd" clip-rule="evenodd" d="M262.293 283.96H284.677C286.902 283.96 288.706 285.758 288.706 287.975C288.706 290.192 286.902 291.989 284.677 291.989H262.293C260.068 291.989 258.264 290.192 258.264 287.975C258.264 285.758 260.068 283.96 262.293 283.96Z" fill="white" fill-opacity="0.646908"/>
<path id="Rectangle Copy 39" fill-rule="evenodd" clip-rule="evenodd" d="M305.269 283.96H327.653C329.878 283.96 331.682 285.758 331.682 287.975C331.682 290.192 329.878 291.989 327.653 291.989H305.269C303.044 291.989 301.24 290.192 301.24 287.975C301.24 285.758 303.044 283.96 305.269 283.96Z" fill="white" fill-opacity="0.646908"/>
<path id="Rectangle Copy 40" fill-rule="evenodd" clip-rule="evenodd" d="M347.351 283.96H369.735C371.96 283.96 373.764 285.758 373.764 287.975C373.764 290.192 371.96 291.989 369.735 291.989H347.351C345.126 291.989 343.322 290.192 343.322 287.975C343.322 285.758 345.126 283.96 347.351 283.96Z" fill="white" fill-opacity="0.646908"/>
</g>
</g>
</g>
<g id="Men1.1">
<g id="LLeg">
<path id="Path_8" fill-rule="evenodd" clip-rule="evenodd" d="M142.482 542C142.482 542 142.328 551.857 148.381 555.358C154.434 558.86 163.812 565.365 163.812 565.365L128.137 566.574L129.154 541.911L142.482 542Z" fill="url(#paint0_linear)"/>
<path id="Path_9" fill-rule="evenodd" clip-rule="evenodd" d="M127.761 553.936C130.519 554.22 129.916 558.21 134.922 558.016C138.569 557.874 144.257 551.148 148.936 553.639C156.078 557.442 164.453 562.57 166.506 563.791C168.56 565.013 169.371 569.618 163.303 570.184C157.501 570.724 149.668 570.664 147.707 570.306C145.744 569.949 142.105 567.446 139.177 567.846C136.249 568.247 135.915 569.256 134.279 569.703C132.643 570.15 127.704 570.247 127.192 568.868C126.603 567.286 126.014 553.756 127.761 553.936Z" fill="#482B61"/>
<path id="Path_10" fill-rule="evenodd" clip-rule="evenodd" d="M124.996 332.889C124.996 332.889 138.605 439.705 139.743 449.806C140.88 459.908 147.128 531.771 146.273 541.357C145.402 551.118 127.14 551.171 124.69 543.806C121.337 533.725 113.585 483.341 112.303 472.819C111.021 462.298 111.471 450.083 106.319 439.309C102.63 431.596 90.4229 335.628 90.4229 335.628L124.996 332.889Z" fill="#2F2B57"/>
<path id="Path_11" opacity="0.59096" fill-rule="evenodd" clip-rule="evenodd" d="M116.998 456.324L117.046 456.805C117.566 462.384 118.001 480.866 118.352 512.249L117.569 507.562C115.113 492.698 112.931 477.974 112.303 472.819C111.048 462.517 111.453 450.591 106.634 439.985L106.319 439.309C104.695 435.915 101.422 415.426 98.2656 393.547L99.2567 396.201C109.796 424.543 115.709 444.584 116.998 456.324Z" fill="white" fill-opacity="0.192499"/>
<path id="Path 10" d="M151.575 555.354L149.868 557.907" stroke="white" stroke-linecap="round"/>
<path id="Path 10_2" d="M154.554 556.352L152.848 558.906" stroke="white" stroke-linecap="round"/>
</g>
<g id="RLeg">
<path id="Path_12" fill-rule="evenodd" clip-rule="evenodd" d="M59.5863 544.261L56.3936 565.817L71.825 565.739L71.3198 543.86L59.5863 544.261Z" fill="url(#paint1_linear)"/>
<path id="Path_13" fill-rule="evenodd" clip-rule="evenodd" d="M53.5505 569.305C53.4989 568.047 54.6698 559.89 56.3937 556.66C57.6441 554.318 60.4167 553.769 64.4739 553.752C69.7071 553.732 74.0807 554.524 74.0746 556.66C74.0562 563.199 75.7144 568.228 75.8258 568.803C76.153 570.488 71.4725 571.747 65.0796 571.683C59.847 571.631 53.6306 571.266 53.5505 569.305Z" fill="#482B61"/>
<path id="Path_14" fill-rule="evenodd" clip-rule="evenodd" d="M107.504 336.396C107.504 336.396 100.429 384.069 96.146 414.233C91.9374 443.873 79.4738 532.285 78.1859 541.54C77.0035 550.036 55.422 550.036 55.6491 539.747C55.8763 529.457 53.8783 465.335 57.8967 455.841C61.9152 446.348 58.4168 435.299 58.5628 426.076C58.7095 416.853 64.4886 337.012 64.4886 337.012L107.504 336.396Z" fill="#3A3669"/>
<path id="Path_15" opacity="0.461565" fill-rule="evenodd" clip-rule="evenodd" d="M68.7971 398.217L68.4593 399.444C64.3624 414.163 62.9485 415.49 64.1096 438.967L64.1215 439.444C64.1619 445.351 61.3528 475.917 55.6941 531.142L55.6685 527.709C55.4701 505.18 54.64 464.445 57.7945 456.097L57.8965 455.841C61.915 446.348 58.4167 435.299 58.5627 426.076C58.7093 416.853 64.4885 337.013 64.4885 337.013L71.8706 336.906L71.9461 340.563C72.4772 369.125 71.4275 388.343 68.7971 398.217Z" fill="white" fill-opacity="0.192499"/>
<path id="Path 9" d="M62.6045 558.534H68.2533" stroke="white" stroke-linecap="round"/>
<path id="Path 9_2" d="M62.6045 561.529H68.2533" stroke="white" stroke-linecap="round"/>
</g>
<g id="Head">
<path id="Path_16" fill-rule="evenodd" clip-rule="evenodd" d="M81.0342 240.078C81.0342 240.078 86.9452 238.683 87.1503 228.949C87.3554 219.214 87.2114 215.891 87.2114 215.891L101.225 215.655C101.225 215.655 101.367 226.504 101.369 230.428C101.374 240.968 108.681 240.078 108.681 240.078C108.681 240.078 107.162 248.624 95.3644 249.291C86.1528 249.812 81.0342 240.078 81.0342 240.078Z" fill="url(#paint2_linear)"/>
<g id="Head1">
<path id="Path_17" fill-rule="evenodd" clip-rule="evenodd" d="M85.925 210.97C80.1166 210.745 81.064 219.291 87.0978 219.279C87.0978 219.279 93.5823 232.383 103.763 232.417C108.667 232.434 110.268 228.043 111.738 224.962C113.208 221.88 114.287 217.27 114.377 214.447C114.473 211.437 114.485 201.55 114.485 201.55L85.6989 201.537L85.925 210.97Z" fill="url(#paint3_linear)"/>
<path id="Path_18" d="M103.355 226.173C104.226 226.654 105.262 226.535 106.064 226.173" stroke="#F49494" stroke-linecap="round"/>
<path id="Path 8" d="M86.8314 215.849C86.8912 214.478 86.4751 213.39 85.084 213.171" stroke="#DE6767" stroke-linecap="round"/>
<path id="Path_19" fill-rule="evenodd" clip-rule="evenodd" d="M85.9252 210.971C85.9252 210.971 88.5958 214.069 89.5837 214.154C90.5724 214.24 89.4459 205.769 90.901 204.226C94.0972 200.835 102.449 206.597 111.232 205.189C114.485 204.668 114.427 210.228 114.427 210.228C122.638 202.703 125.614 196.767 115.803 194.289C115.725 187.92 112.08 186.322 105.031 189.276C104.089 180.673 91.9111 181.971 86.3677 192.916C82.3554 188.992 76.7157 192.16 79.1091 198.064C74.7885 198.064 77.04 209.672 82.1317 213.66C82.7392 211.918 83.8494 210.971 85.9252 210.971Z" fill="#422851"/>
<path id="Path_20" d="M101.386 223.414C101.386 223.414 104.151 226.029 107.623 223.899" stroke="#DE6767" stroke-linecap="round"/>
</g>
</g>
<g id="LArm">
<g id="Group 3_2">
<path id="Path_21" fill-rule="evenodd" clip-rule="evenodd" d="M182.553 271.335C182.553 271.335 184.215 262.095 186.414 258.858C188.613 255.619 189.254 250.179 191.329 250.379C193.404 250.58 191.326 259.265 191.326 259.265C191.326 259.265 201.002 252.005 205.392 249.504C209.397 247.223 207.2 259.026 206.574 260.531C205.083 264.112 187.833 277.63 187.833 277.63C187.833 277.63 182.93 272.157 182.553 271.335Z" fill="url(#paint4_linear)"/>
<path id="Path_22" fill-rule="evenodd" clip-rule="evenodd" d="M191.326 259.264C191.326 259.264 190.612 262.235 190.968 262.235C191.325 262.235 197.892 254.487 197.892 254.487L191.326 259.264Z" fill="#F28585"/>
</g>
<path id="Path_23" fill-rule="evenodd" clip-rule="evenodd" d="M126.694 250.655C131.425 260.915 149.121 287.426 149.121 287.426C149.121 287.426 178.119 268.52 181.809 268.481C185.499 268.442 190.509 273.338 190.194 276.717C189.879 280.096 158.129 309.732 147.946 309.483C132.113 309.095 112.258 267.922 110.219 262.419C104.759 247.678 122.079 240.647 126.694 250.655Z" fill="#FF5C5D"/>
<path id="Path 5" fill-rule="evenodd" clip-rule="evenodd" d="M149.016 287.407C149.016 287.407 152.364 292.312 152.964 291.99C153.564 291.668 151.648 285.994 151.648 285.994L149.016 287.407Z" fill="black" fill-opacity="0.159856"/>
</g>
<g id="Body">
<path id="Path_24" fill-rule="evenodd" clip-rule="evenodd" d="M56.6569 252.296C55.1712 259.42 65.3456 295.325 62.5464 312.122C60.3324 325.406 58.2189 343.698 63.9571 347.759C69.7991 351.894 120.087 355.177 127.255 343.698C132.941 334.591 128.286 314.396 127.255 305.183C125.198 286.804 128.304 255.042 124.814 248.546C122.65 244.516 107.892 239.319 107.338 239.48C106.783 239.641 105.48 245.351 96.1486 245.351C86.817 245.351 82.6963 239.48 82.1949 239.319C81.6935 239.158 58.0014 245.852 56.6569 252.296Z" fill="#EA5455"/>
<path id="Path_25" fill-rule="evenodd" clip-rule="evenodd" d="M82.1719 239.316L82.1954 239.319C82.6968 239.48 86.8175 245.351 96.1491 245.351C105.481 245.351 106.784 239.641 107.338 239.48C107.538 239.422 109.589 240.062 112.229 241.093L112.217 241.214C105.547 252.415 87.2046 253.795 77.3998 240.981L77.1777 240.685L78.2718 240.345C80.2744 239.737 81.7075 239.371 82.0972 239.322L82.1719 239.316Z" fill="#FF9B86"/>
<path id="Path_26" fill-rule="evenodd" clip-rule="evenodd" d="M56.6885 257.245L57.5107 257.359C66.2329 258.607 71.3484 260.58 72.8572 263.28C73.8472 265.052 73.3869 271.044 71.4763 281.257L71.2735 282.329C69.5015 291.586 71.5276 301.163 76.877 308.888L77.1776 309.316C78.9867 311.847 80.6545 315.179 82.1809 319.314C85.7216 328.903 78.1902 336.983 82.9601 351.25L81.9863 351.178C73.1197 350.499 65.9488 349.169 63.9571 347.759C58.219 343.698 60.3325 325.406 62.5464 312.122C64.9282 297.83 57.9172 269.704 56.6885 257.245Z" fill="black" fill-opacity="0.0667614"/>
</g>
<g id="Rarm">
<g id="Group 2">
<path id="Path_27" fill-rule="evenodd" clip-rule="evenodd" d="M66.8808 328.606C66.8808 328.606 70.2286 332.556 73.0859 333.047C75.9433 333.538 87.9012 335.877 88.6311 336.224C89.3209 336.551 91.68 337.793 93.6974 339.786C95.4452 341.512 98.4689 345.606 97.4551 346.31C96.3714 347.063 93.4455 343.371 91.9774 342.459C90.4381 341.501 88.0724 340.654 88.0724 340.654C88.0724 340.654 93.9242 347.713 93.5521 348.946C93.2805 349.847 88.3045 351.384 87.2404 351.268C86.1764 351.153 80.3132 346.86 77.6779 346.361C75.85 346.015 67.6664 343.798 65.9404 342.133C64.215 340.468 60.333 337.089 60.333 337.089L66.8808 328.606Z" fill="url(#paint5_linear)"/>
<path id="Path_28" fill-rule="evenodd" clip-rule="evenodd" d="M92.4237 349.765C92.4237 349.765 86.2999 343.594 86.0444 343.7C85.7888 343.805 91.3804 350.194 91.3804 350.194L92.4237 349.765Z" fill="#F28585"/>
<path id="Path_29" fill-rule="evenodd" clip-rule="evenodd" d="M89.6944 350.778C89.6944 350.778 85.107 346.575 84.8072 346.778C84.5073 346.98 88.4814 351.121 88.4814 351.121L89.6944 350.778Z" fill="#F28585"/>
</g>
<path id="Path_30" fill-rule="evenodd" clip-rule="evenodd" d="M70.209 246.345C79.6645 252.998 73.3474 265.092 65.5027 276.186C58.1747 286.549 47.0679 302.158 47.0679 302.158C47.0679 302.158 67.9526 325.034 69.97 329.266C71.9873 333.499 66.8356 341.448 60.4311 339.277C54.0259 337.106 17.5776 310.107 24.9896 297.348C36.3106 277.859 59.0404 238.486 70.209 246.345Z" fill="#FF5C5D"/>
<path id="Path 6" fill-rule="evenodd" clip-rule="evenodd" d="M47.068 302.158C47.068 302.158 42.7822 297.624 43.1826 297.099C43.5831 296.575 48.4132 300.281 48.4132 300.281L47.068 302.158Z" fill="black" fill-opacity="0.159856"/>
</g>
</g>
<g id="Group 7">
<path id="Rectangle_22" fill-rule="evenodd" clip-rule="evenodd" d="M390.957 492.784C390.957 479.468 401.752 468.672 415.068 468.672L496.199 468.672V551.132C496.199 553.341 494.408 555.132 492.199 555.132H394.957C392.748 555.132 390.957 553.341 390.957 551.132L390.957 492.784Z" fill="#86E5F0"/>
<path id="Rectangle_23" fill-rule="evenodd" clip-rule="evenodd" d="M400.465 538.065L477.244 538.065V555.132H400.465V538.065Z" fill="#86E5F0"/>
<path id="Path_31" fill-rule="evenodd" clip-rule="evenodd" d="M498.246 554.514L503.089 566.644H479.676L483.733 554.514H498.246Z" fill="#86E5F0"/>
<path id="Path_32" fill-rule="evenodd" clip-rule="evenodd" d="M418.474 554.514L423.318 566.644H399.904L403.962 554.514H418.474Z" fill="#91D6FF"/>
<path id="Path_33" fill-rule="evenodd" clip-rule="evenodd" d="M577.019 554.514L581.863 566.644H558.449L562.507 554.514H577.019Z" fill="#86E5F0"/>
<path id="Rectangle_24" fill-rule="evenodd" clip-rule="evenodd" d="M450.796 403.492C450.796 390.38 461.275 379.671 474.384 379.387L496.796 378.901V476.828H450.796L450.796 403.492Z" fill="#91D6FF"/>
<path id="Rectangle_25" fill-rule="evenodd" clip-rule="evenodd" d="M459.771 403.012C459.771 389.696 470.566 378.901 483.882 378.901H560.113C572.175 378.901 581.953 388.679 581.953 400.741V477.076C581.953 478.041 581.17 478.824 580.205 478.824H459.771L459.771 403.012Z" fill="#C6F9FF"/>
<path id="Rectangle_26" fill-rule="evenodd" clip-rule="evenodd" d="M547.806 396.818C547.806 386.923 555.828 378.901 565.723 378.901C574.686 378.901 581.953 386.167 581.953 395.13V467.1C581.953 468.065 581.17 468.847 580.206 468.847H547.806V396.818Z" fill="#86E5F0"/>
<path id="Rectangle_27" fill-rule="evenodd" clip-rule="evenodd" d="M400.465 490.474C400.465 483.515 406.106 477.874 413.065 477.874H491.345V543.628H400.465V490.474Z" fill="#C6F9FF"/>
<g id="Wom1.4">
<g id="Head_2">
<path id="Path_34" fill-rule="evenodd" clip-rule="evenodd" d="M494.784 370.394C506.983 367.552 507.786 350.8 498.512 344.989C508.076 324.929 485.959 305.012 470.809 317.295C460.877 313.041 452.623 329.64 461.865 342.532C457.99 364.667 465.876 370.388 480.093 370.632L494.784 370.394Z" fill="#422851"/>
<path id="Path_35" fill-rule="evenodd" clip-rule="evenodd" d="M494.633 366.393C494.633 366.393 488.699 365 488.493 355.271C488.287 345.543 488.432 342.223 488.432 342.223L475.361 341.987C475.361 341.987 475.219 352.828 475.217 356.75C475.211 367.283 467.876 366.393 467.876 366.393C467.876 366.393 469.401 374.934 481.245 375.6C490.492 376.121 494.633 366.393 494.633 366.393Z" fill="url(#paint6_linear)"/>
<path id="Path_36" fill-rule="evenodd" clip-rule="evenodd" d="M491.478 337.365C497.309 337.139 496.358 345.679 490.301 345.668C490.301 345.668 486.783 357.8 474.569 357.8C464.649 357.8 464.004 343.66 463.914 340.839C463.817 337.831 463.805 327.95 463.805 327.95L491.705 327.938L491.478 337.365Z" fill="url(#paint7_linear)"/>
<path id="Path_37" d="M476.924 349.65C476.924 349.65 474.015 352.114 470.645 349.806" stroke="#F77B7B" stroke-width="1.5" stroke-linecap="round"/>
<path id="Path_38" d="M475.004 352.504C474.099 352.922 473.227 352.952 472.449 352.536" stroke="#F49494" stroke-linecap="round"/>
<path id="Path 8_2" d="M490.884 341.958C490.825 340.588 491.242 339.5 492.639 339.281" stroke="#F77B7B" stroke-linecap="round"/>
<path id="Path_39" fill-rule="evenodd" clip-rule="evenodd" d="M492.401 336.309C492.401 336.309 489.205 340.6 488.558 340.623C487.91 340.646 487.684 335.043 487.684 335.043C483.763 334.743 473.842 332.766 471.409 328.161C469.709 332.224 466.457 334.029 464.321 333.683L463.916 342.315L462.919 324.96H493.183L492.401 336.309Z" fill="#422851"/>
</g>
<g id="LLeg_2">
<path id="Path_40" fill-rule="evenodd" clip-rule="evenodd" d="M434.914 537.945C434.914 537.945 440.144 548.516 435.856 551.847C431.562 555.179 420.218 561.422 420.218 561.422L450.271 559.532L443.591 536.478L434.914 537.945Z" fill="url(#paint8_linear)"/>
<path id="Path_41" fill-rule="evenodd" clip-rule="evenodd" d="M447.364 548.005C445.881 548.179 447.465 553.175 444.254 553.555C441.049 553.934 439.491 549.201 435.854 550.701C432.217 552.202 418.954 559.96 418.431 563.132C417.903 566.303 422.844 567.236 429.622 566.52C436.399 565.804 437.648 563.391 442.736 564.363C447.817 565.334 451.623 563.786 451.456 560.071C451.288 556.357 448.847 547.832 447.364 548.005Z" fill="#222D4E"/>
<path id="Path 14" fill-rule="evenodd" clip-rule="evenodd" d="M434.196 551.471L434.856 552.461C435.18 552.947 435.021 553.605 434.511 553.889L425.546 558.895C425.255 559.057 424.903 559.064 424.606 558.913L423.214 558.207C425.4 556.623 427.187 555.433 429.162 554.264C430.679 553.367 432.358 552.442 434.196 551.471Z" fill="white" fill-opacity="0.540975"/>
<path id="Path_42" fill-rule="evenodd" clip-rule="evenodd" d="M480.186 444.779C471.087 445.185 420.447 456.392 411.247 458.296C402.047 460.2 394.268 470.502 401.284 482.431C409.164 495.822 429.495 533.853 434.431 542.427C436.875 546.67 449.2 544.291 446.305 537.169C440.908 523.892 438.401 490.539 424.641 478.378C424.641 478.378 470.917 486.436 490.907 477.206C505.435 470.496 502.148 443.796 480.186 444.779Z" fill="url(#paint9_linear)"/>
</g>
<g id="LArm_2">
<path id="Path_43" fill-rule="evenodd" clip-rule="evenodd" d="M415.718 390.947C415.718 390.947 415.821 383.54 413.231 379.669C410.642 375.798 410.539 371.686 408.579 371.82C406.619 371.955 408.56 381.512 408.56 381.512C408.56 381.512 406.073 380.562 404.287 379.36C402.5 378.157 397.083 372.23 395.817 373.28C393.671 375.07 397.128 385.165 399.011 387.183C400.9 389.202 411.22 395.841 411.22 395.841L415.718 390.947Z" fill="url(#paint10_linear)"/>
<path id="Path_44" fill-rule="evenodd" clip-rule="evenodd" d="M471.632 386.508C467.399 396.33 459.65 414.374 456.455 419.757C452.451 426.498 446.137 429.468 438.745 424.467C430.978 419.211 409.591 398.711 408.964 394.068C408.342 389.424 413.577 383.853 418.314 386.737C423.05 389.622 442.732 406.01 442.732 406.01C442.732 406.01 450.675 385.637 457.064 373.836C462.598 363.626 478.074 371.577 471.632 386.508Z" fill="#6A5EE3"/>
<path id="Path_45" fill-rule="evenodd" clip-rule="evenodd" d="M442.649 406.02C442.649 406.02 440.516 413.26 440.017 412.841C439.519 412.422 440.398 404.128 440.398 404.128L442.649 406.02Z" fill="black" fill-opacity="0.302803"/>
</g>
<g id="PhoneMini4">
<g id="Group 3_3">
<path id="Rectangle_28" d="M388.709 372.331C388.3 371.07 388.99 369.716 390.25 369.307L401.617 365.613C402.878 365.204 404.232 365.894 404.641 367.154L413.517 394.47C413.927 395.731 413.237 397.085 411.976 397.495L400.609 401.188C399.349 401.598 397.995 400.908 397.585 399.647L388.709 372.331Z" fill="#7596FF"/>
<rect id="Rectangle_29" x="389.032" y="369.24" width="16.7519" height="33.522" rx="2.4" transform="rotate(-18 389.032 369.24)" fill="#93C2F9"/>
<path id="Rectangle_30" d="M392.25 369.453L393.458 369.06C393.704 368.98 393.966 369.091 394.085 369.311L394.122 369.399C394.212 369.676 394.51 369.828 394.787 369.738L400.613 367.845C400.859 367.765 401.006 367.521 400.973 367.273L400.952 367.18C400.862 366.903 401.013 366.605 401.29 366.515L402.492 366.125C403.385 365.835 404.341 366.285 404.697 367.137L404.748 367.276L413.149 393.21C413.514 394.342 412.895 395.556 411.765 395.925L402.206 399.031C401.124 399.385 399.965 398.833 399.545 397.794L399.492 397.649C399.492 397.648 399.492 397.648 399.493 397.647L391.094 371.719C390.788 370.774 391.305 369.76 392.25 369.453Z" fill="#E6F3FF"/>
</g>
</g>
<g id="Body_2">
<path id="Path_46" fill-rule="evenodd" clip-rule="evenodd" d="M513.93 374.674C513.93 374.674 503.73 408.844 503.428 415.313C503.126 421.782 511.77 440.794 510.299 445.599C506.905 456.704 463.582 461.485 461.927 446.547C461.155 439.58 462.761 433.327 460.91 425.118C459.066 416.909 451.651 404.711 455.857 393.242C460.062 381.773 458.935 371.163 461.943 369.157C464.951 367.152 471.982 365.022 471.982 365.022C475.401 370.056 486.943 369.983 492.451 364.667C492.451 364.667 506.134 367.322 513.93 374.674Z" fill="#7367F0"/>
<path id="Path_47" fill-rule="evenodd" clip-rule="evenodd" d="M504.789 380.208C497.991 391.003 498.011 409.799 494.36 412.26C490.708 414.722 476.497 412.306 476.497 414.256C476.497 416.205 496.136 434.07 492.912 442.611C491.224 447.082 491.682 451.083 494.286 454.613L495.136 454.427C502.874 452.678 509.095 449.536 510.298 445.599C511.77 440.794 502.129 421.782 502.431 415.313C502.687 409.822 510.794 384.369 513.238 376.801C511.248 373.288 508.432 374.423 504.789 380.208Z" fill="black" fill-opacity="0.199355"/>
</g>
<g id="RArm">
<path id="Path_48" fill-rule="evenodd" clip-rule="evenodd" d="M493.196 408.848C493.196 408.848 484.605 401.241 481.976 400.358C479.346 399.475 463.943 398.414 464.04 400.409C464.151 402.547 472.424 402.424 473.281 403.475C474.138 404.526 474.333 411.713 477.573 412.519C480.807 413.326 490.501 414.717 490.501 414.717L493.196 408.848Z" fill="url(#paint11_linear)"/>
<path id="Path_49" fill-rule="evenodd" clip-rule="evenodd" d="M516.052 376.637C525.103 389.418 532.83 408.887 535.796 416.477C538.763 424.067 535.77 435.516 522.727 433.268C509.708 431.027 488.992 418.846 486.7 415.293C484.408 411.74 487.89 405.274 492.275 406.121C496.337 406.904 516.488 415.477 516.488 415.477C516.488 415.477 503.524 392.486 500.359 386.323C495.071 376.03 508.079 365.376 516.052 376.637Z" fill="#6A5EE3"/>
<path id="Path_50" fill-rule="evenodd" clip-rule="evenodd" d="M516.282 415.319C516.282 415.319 523.072 418.695 522.244 417.279C521.416 415.864 513.691 410.891 513.691 410.891L516.282 415.319Z" fill="black" fill-opacity="0.302803"/>
</g>
<g id="RLeg_2">
<path id="Path_51" fill-rule="evenodd" clip-rule="evenodd" d="M403.31 538.37C403.31 538.37 403.468 550.811 393.221 555.463C382.981 560.114 375.686 559.834 376.614 563.431C377.543 567.026 404.196 566.881 406.685 564.069C408.807 561.676 413.42 539.399 414.69 541.102L403.31 538.37Z" fill="url(#paint12_linear)"/>
<path id="Path_52" fill-rule="evenodd" clip-rule="evenodd" d="M411.417 552.297C410.272 550.085 410.2 556.307 405.687 554.936C402.025 553.823 400.773 547.454 398.458 548.849C396.144 550.244 375.771 561.06 375.655 561.125C373.147 562.477 373.848 566.572 378.084 567.287C382.792 568.081 407.183 567.547 408.492 566.291C409.801 565.036 412.334 554.07 411.417 552.297Z" fill="#222D4E"/>
<path id="Path 14_2" fill-rule="evenodd" clip-rule="evenodd" d="M395.445 552.569C395.843 552.569 396.223 553.069 396.497 553.55C396.764 554.019 396.516 554.589 396.016 554.795L385.504 559.125C385.164 559.265 384.767 559.213 384.524 558.937C384.3 558.685 384.093 558.371 384.196 558.156C384.394 557.741 394.677 552.569 395.445 552.569Z" fill="white" fill-opacity="0.540975"/>
<path id="Path_53" fill-rule="evenodd" clip-rule="evenodd" d="M509.691 440.933C509.691 440.933 522.919 468.883 504.33 478.481C486.353 487.762 432.535 476.785 432.535 476.785C432.535 476.785 433.497 484.531 432.535 491.441C430.023 509.486 418.078 539.55 415.551 543.327C412.056 548.551 401.41 544.612 401.209 540.262C401.009 535.912 409.235 480.358 410.486 469.764C411.73 459.169 415.659 457.63 427.135 454.734C429.772 454.069 460.949 446.317 463.805 446.543C488.346 448.484 509.691 440.933 509.691 440.933Z" fill="#2C3757"/>
<path id="Path_54" opacity="0.461565" fill-rule="evenodd" clip-rule="evenodd" d="M495.191 475.596C477.393 477.592 430.273 473.479 428.381 475.348C426.574 477.132 426.876 508.175 422.823 526.143L423.439 524.446C427.251 513.854 431.209 500.971 432.535 491.441C433.497 484.531 432.535 476.785 432.535 476.785L434.705 477.205C444.935 479.128 488.51 486.649 504.33 478.481C512.901 474.055 516.399 466.703 514.823 456.424C512.109 468.042 505.565 474.433 495.191 475.596Z" fill="white" fill-opacity="0.192499"/>
</g>
</g>
<path id="Rectangle_31" fill-rule="evenodd" clip-rule="evenodd" d="M476.711 492.784C476.711 479.468 487.506 468.672 500.822 468.672L581.953 468.672V553.385C581.953 554.35 581.171 555.132 580.206 555.132H476.711L476.711 492.784Z" fill="#86E5F0"/>
</g>
<g id="Group 80">
<path id="Rectangle_32" d="M595 508H603C610.732 508 617 514.268 617 522H609C601.268 522 595 515.732 595 508Z" fill="#2CE780"/>
<path id="Rectangle_33" d="M605 500H611C614.866 500 618 503.134 618 507H612C608.134 507 605 503.866 605 500Z" fill="#28C76F"/>
<path id="Rectangle_34" d="M636 507H629C622.373 507 617 512.373 617 519H624C630.627 519 636 513.627 636 507Z" fill="#28C76F"/>
<path id="Rectangle_35" fill-rule="evenodd" clip-rule="evenodd" d="M627.408 494.212L621.714 496.524C617.268 498.329 615.12 503.39 616.91 507.841L622.605 505.529C627.05 503.724 629.198 498.664 627.408 494.212V494.212Z" fill="#2CE780"/>
<path id="Path_55" fill-rule="evenodd" clip-rule="evenodd" d="M612.765 493C615.893 494.983 617.877 498.756 617.994 502.897L618 503.286V533H616.395V503.286C616.395 499.802 614.819 496.589 612.267 494.828L612 494.651L612.765 493Z" fill="#28C76F"/>
<g id="Group 84">
<path id="Rectangle_36" fill-rule="evenodd" clip-rule="evenodd" d="M605.059 523H630.005C631.17 523 632.115 523.925 632.115 525.067V525.126C632.115 526.388 632.728 527.574 633.767 528.322L634.413 528.788C635.451 529.535 636.065 530.722 636.065 531.984V562.872C636.065 565.063 634.251 566.839 632.014 566.839H603.051C600.814 566.839 599 565.063 599 562.872V531.984C599 530.722 599.613 529.535 600.651 528.788L601.298 528.322C602.267 527.624 602.866 526.544 602.941 525.377L602.95 525.067C602.95 523.925 603.894 523 605.059 523Z" fill="#DA4E4F"/>
<mask id="mask2" mask-type="alpha" maskUnits="userSpaceOnUse" x="599" y="523" width="38" height="44">
<path id="Rectangle_37" fill-rule="evenodd" clip-rule="evenodd" d="M605.059 523H630.005C631.17 523 632.115 523.925 632.115 525.067V525.126C632.115 526.388 632.728 527.574 633.767 528.322L634.413 528.788C635.451 529.535 636.065 530.722 636.065 531.984V562.872C636.065 565.063 634.251 566.839 632.014 566.839H603.051C600.814 566.839 599 565.063 599 562.872V531.984C599 530.722 599.613 529.535 600.651 528.788L601.298 528.322C602.267 527.624 602.866 526.544 602.941 525.377L602.95 525.067C602.95 523.925 603.894 523 605.059 523Z" fill="white"/>
</mask>
<g mask="url(#mask2)">
<path id="Rectangle_38" fill-rule="evenodd" clip-rule="evenodd" d="M597.987 521.016H608.114C603.645 538.063 614.53 552.2 608.114 569.616H597.987V521.016Z" fill="#E95B5C"/>
<rect id="Rectangle_39" x="599" y="549.78" width="37.0645" height="3.96734" fill="#FFDFE2" fill-opacity="0.257949"/>
<rect id="Rectangle_40" x="599" y="538.869" width="37.0645" height="3.96734" fill="#FFDFE2" fill-opacity="0.257949"/>
</g>
</g>
<path id="Rectangle_41" fill-rule="evenodd" clip-rule="evenodd" d="M607.37 488.916L612.087 490.275C616.039 491.414 618.324 495.536 617.195 499.491L612.478 498.131C608.527 496.993 606.242 492.871 607.37 488.916V488.916Z" fill="#2CE780"/>
</g>
</g>
</g>
<defs>
<filter id="filter0_f" x="0.563437" y="153.777" width="241.934" height="243.659" filterUnits="userSpaceOnUse" color-interpolation-filters="sRGB">
<feFlood flood-opacity="0" result="BackgroundImageFix"/>
<feBlend mode="normal" in="SourceGraphic" in2="BackgroundImageFix" result="shape"/>
<feGaussianBlur stdDeviation="2.71828" result="effect1_foregroundBlur"/>
</filter>
<filter id="filter1_dd" x="173.229" y="335.513" width="248.702" height="176.768" filterUnits="userSpaceOnUse" color-interpolation-filters="sRGB">
<feFlood flood-opacity="0" result="BackgroundImageFix"/>
<feColorMatrix in="SourceAlpha" type="matrix" values="0 0 0 0 0 0 0 0 0 0 0 0 0 0 0 0 0 0 127 0"/>
<feOffset dx="5" dy="5"/>
<feGaussianBlur stdDeviation="10"/>
<feColorMatrix type="matrix" values="0 0 0 0 0.0755213 0 0 0 0 0.582569 0 0 0 0 0.878793 0 0 0 0.229458 0"/>
<feBlend mode="normal" in2="BackgroundImageFix" result="effect1_dropShadow"/>
<feColorMatrix in="SourceAlpha" type="matrix" values="0 0 0 0 0 0 0 0 0 0 0 0 0 0 0 0 0 0 127 0"/>
<feOffset dy="1"/>
<feGaussianBlur stdDeviation="5.5"/>
<feColorMatrix type="matrix" values="0 0 0 0 0.503982 0 0 0 0 0.700178 0 0 0 0 1 0 0 0 0.233829 0"/>
<feBlend mode="normal" in2="effect1_dropShadow" result="effect2_dropShadow"/>
<feBlend mode="normal" in="SourceGraphic" in2="effect2_dropShadow" result="shape"/>
</filter>
<filter id="filter2_d" x="177.964" y="196.351" width="244.004" height="154.821" filterUnits="userSpaceOnUse" color-interpolation-filters="sRGB">
<feFlood flood-opacity="0" result="BackgroundImageFix"/>
<feColorMatrix in="SourceAlpha" type="matrix" values="0 0 0 0 0 0 0 0 0 0 0 0 0 0 0 0 0 0 127 0"/>
<feOffset dx="6" dy="4"/>
<feGaussianBlur stdDeviation="7"/>
<feColorMatrix type="matrix" values="0 0 0 0 0.0189934 0 0 0 0 0.0189934 0 0 0 0 0.0189934 0 0 0 0.11 0"/>
<feBlend mode="normal" in2="BackgroundImageFix" result="effect1_dropShadow"/>
<feBlend mode="normal" in="SourceGraphic" in2="effect1_dropShadow" result="shape"/>
</filter>
<linearGradient id="paint0_linear" x1="121.964" y1="535.908" x2="123.277" y2="565.378" gradientUnits="userSpaceOnUse">
<stop stop-color="#FDC6C6"/>
<stop offset="1" stop-color="#FAB2B2"/>
</linearGradient>
<linearGradient id="paint1_linear" x1="53.7233" y1="538.516" x2="56.1143" y2="564.585" gradientUnits="userSpaceOnUse">
<stop stop-color="#FDC6C6"/>
<stop offset="1" stop-color="#FAB2B2"/>
</linearGradient>
<linearGradient id="paint2_linear" x1="72.0345" y1="210.658" x2="82.8035" y2="260.315" gradientUnits="userSpaceOnUse">
<stop stop-color="#FFAFAF"/>
<stop offset="1" stop-color="#F07777"/>
</linearGradient>
<linearGradient id="paint3_linear" x1="74.7409" y1="201.187" x2="81.6557" y2="234.798" gradientUnits="userSpaceOnUse">
<stop stop-color="#FDC6C6"/>
<stop offset="1" stop-color="#FAB2B2"/>
</linearGradient>
<linearGradient id="paint4_linear" x1="180.59" y1="240.179" x2="180.945" y2="275.552" gradientUnits="userSpaceOnUse">
<stop stop-color="#FDC6C6"/>
<stop offset="1" stop-color="#FAB2B2"/>
</linearGradient>
<linearGradient id="paint5_linear" x1="53.8743" y1="323.088" x2="54.9351" y2="350.188" gradientUnits="userSpaceOnUse">
<stop stop-color="#FDC6C6"/>
<stop offset="1" stop-color="#FAB2B2"/>
</linearGradient>
<linearGradient id="paint6_linear" x1="503.343" y1="336.992" x2="492.263" y2="386.47" gradientUnits="userSpaceOnUse">
<stop stop-color="#FFAFAF"/>
<stop offset="1" stop-color="#F07777"/>
</linearGradient>
<linearGradient id="paint7_linear" x1="502.481" y1="327.599" x2="495.833" y2="360.118" gradientUnits="userSpaceOnUse">
<stop stop-color="#FDC6C6"/>
<stop offset="1" stop-color="#FAB2B2"/>
</linearGradient>
<linearGradient id="paint8_linear" x1="455.472" y1="530.406" x2="453.879" y2="560.187" gradientUnits="userSpaceOnUse">
<stop stop-color="#FDC6C6"/>
<stop offset="1" stop-color="#FAB2B2"/>
</linearGradient>
<linearGradient id="paint9_linear" x1="424.4" y1="568.758" x2="376.326" y2="476.481" gradientUnits="userSpaceOnUse">
<stop stop-color="#28324F"/>
<stop offset="1" stop-color="#222735"/>
</linearGradient>
<linearGradient id="paint10_linear" x1="419.28" y1="365.969" x2="417.128" y2="394.571" gradientUnits="userSpaceOnUse">
<stop stop-color="#FDC6C6"/>
<stop offset="1" stop-color="#FAB2B2"/>
</linearGradient>
<linearGradient id="paint11_linear" x1="498.241" y1="395.514" x2="497.611" y2="413.984" gradientUnits="userSpaceOnUse">
<stop stop-color="#FDC6C6"/>
<stop offset="1" stop-color="#FAB2B2"/>
</linearGradient>
<linearGradient id="paint12_linear" x1="421.293" y1="531.606" x2="419.735" y2="564.802" gradientUnits="userSpaceOnUse">
<stop stop-color="#FDC6C6"/>
<stop offset="1" stop-color="#FAB2B2"/>
</linearGradient>
</defs>
</svg>
